<svg width="80" height="26" viewBox="0 0 80 26" fill="none" xmlns="http://www.w3.org/2000/svg">
<path d="M2 11C0.895431 11 0 11.8954 0 13C0 14.1046 0.895431 15 2 15V11ZM76.5 13L78.0185 14.3016L79.1342 13L78.0185 11.6984L76.5 13ZM65.9815 22.1984C65.2626 23.0371 65.3598 24.2997 66.1984 25.0185C67.0371 25.7374 68.2997 25.6402 69.0185 24.8016L65.9815 22.1984ZM69.0185 1.19842C68.2997 0.359766 67.0371 0.262642 66.1984 0.981487C65.3598 1.70033 65.2626 2.96293 65.9815 3.80158L69.0185 1.19842ZM2 15H76.5V11H2V15ZM74.9815 11.6984L65.9815 22.1984L69.0185 24.8016L78.0185 14.3016L74.9815 11.6984ZM78.0185 11.6984L69.0185 1.19842L65.9815 3.80158L74.9815 14.3016L78.0185 11.6984Z" fill="white"/>
</svg>
